<svg height="24" viewBox="0 0 24 24" width="24" xmlns="http://www.w3.org/2000/svg"><path d="m12.05175 18.85575c-4.02675 0-5.8275-1.97925-5.8275-3.46275 0-.76125.56175-1.2945 1.33575-1.2945 1.7235 0 1.27725 2.47425 4.49175 2.47425 1.6455 0 2.5545-.894 2.5545-1.80825 0-.54975-.2715-1.1595-1.35525-1.4265l-3.58125-.894c-2.88375-.723-3.40725-2.28225-3.40725-3.74775 0-3.0435 2.865-4.18575 5.556-4.18575 2.478 0 5.4 1.3695 5.4 3.195 0 .78225-.67725 1.2375-1.45125 1.2375-1.47075 0-1.2-2.0355-4.16175-2.0355-1.47 0-2.28375.666-2.28375 1.6185 0 .95025 1.161 1.254 2.16825 1.4835l2.65125.58875c2.90325.6465 3.639 2.3415 3.639 3.93825 0 2.47275-1.8975 4.31925-5.7285 4.31925m11.0985-4.88625c-.0075.042-.01275.08475-.021.12675l-.0405-.2415c.02175.0375.0405.0765.0615.11475.12375-.67425.189-1.36425.189-2.05425 0-1.53-.3-3.01425-.891-4.4115-.5715-1.34925-1.3875-2.56125-2.42925-3.60225-1.04025-1.041-2.253-1.85775-3.60225-2.4285-1.3965-.591-2.88075-.89025-4.41-.89025-.7215 0-1.44375.0675-2.1465.2025-.0015 0-.003 0-.00525.00075.03975.021.0795.03975.1185.0615l-.2385-.0375c.03975-.0075.08025-.01575.12-.024-.9645-.51225-2.04825-.786-3.14625-.786-1.79175 0-3.477.6975-4.74375 1.965-1.26675 1.26675-1.965 2.952-1.965 4.7445 0 1.14.29325 2.26125.84375 3.25275.00675-.04125.012-.08325.02025-.12375l.04125.23775c-.02175-.0375-.0405-.0765-.0615-.114-.11175.64125-.171 1.2975-.171 1.953 0 1.53.3 3.01425.89175 4.4115.57 1.35 1.3875 2.56125 2.42775 3.60225 1.041 1.04025 2.25225 1.8585 3.603 2.42775 1.3965.5925 2.8815.89175 4.4115.89175.66525 0 1.33275-.06075 1.9845-.17625-.03825-.021-.07725-.0405-.1155-.063l.24225.04275c-.042.0075-.084.01275-.12675.02025 1.0035.5685 2.13975.87 3.3.87 1.7925 0 3.47625-.69675 4.74375-1.965 1.2675-1.266 1.965-2.95125 1.965-4.74375 0-1.1445-.29475-2.2695-.84975-3.264" fill="#00aff0" fill-rule="evenodd"/></svg>